#!OML:ASF I:\golf\golf\golf 2\Subject 1\2002-09-07\Subject1.ASF
:FULLY-SPECIFIED
:DEGREES
138
root -8.05133 17.7529 1.27908 -16.5046 74.5057 -31.4765
lowerback 3.43362 -1.77137 -7.35066
upperback 6.1542 -2.33277 2.19272
thorax 4.91735 -1.51799 6.40868
lowerneck -12.7401 7.5956 2.10398
upperneck 31.6602 14.6982 -9.24419
head 13.8068 5.75489 -1.61638
rclavicle 4.45278e-014 -3.65764e-014
rhumerus -13.3349 -0.0599279 -95.7542
rradius 66.7652
rwrist -65.7859
rhand -49.1516 3.39472
rfingers 7.12502
rthumb -21.7746 -25.4004
lclavicle 4.45278e-014 -3.65764e-014
lhumerus 62.7412 -71.6885 43.0851
lradius 23.9053
lwrist 6.42388
lhand 177.823 220.562
lfingers 7.12502
lthumb -156.496 249.146
rfemur -32.7351 3.9857 20.175
rtibia 31.5809
rfoot -10.4016 3.20415
rtoes 4.25981
lfemur -20.1613 10.7084 0.502168
ltibia 24.9446
lfoot -9.06577 9.30505
ltoes -23.8675
139
root -8.04553 17.7495 1.32815 -16.3937 73.8908 -31.4028
lowerback 3.42348 -1.97324 -7.50831
upperback 6.0987 -2.60629 2.15198
thorax 4.91855 -1.66091 6.44916
lowerneck -12.6286 7.99951 2.1203
upperneck 31.5544 15.3133 -9.3722
head 13.8032 6.00894 -1.56889
rclavicle 4.53229e-014 -7.95139e-015
rhumerus -13.4133 -0.503267 -95.4764
rradius 67.9999
rwrist -65.2889
rhand -49.6405 4.8115
rfingers 7.12502
rthumb -22.244 -23.9284
lclavicle 4.53229e-014 -7.95139e-015
lhumerus 64.4464 -71.3683 41.875
lradius 23.8839
lwrist 5.46759
lhand 177.102 218.955
lfingers 7.12502
lthumb -157.188 247.626
rfemur -32.7763 4.2524 20.6274
rtibia 31.6028
rfoot -10.3832 3.56682
rtoes 3.61619
lfemur -19.7667 10.8142 0.977278
ltibia 24.8636
lfoot -9.07331 9.7943
ltoes -24.1014
140
root -8.03989 17.746 1.36627 -16.7255 73.488 -31.8596
lowerback 3.34394 -2.30393 -7.43242
upperback 6.06321 -3.04532 2.12507
thorax 4.99424 -1.87905 6.36349
lowerneck -12.4413 8.43124 2.14586
upperneck 31.2446 15.95 -9.59035
head 13.7078 6.27427 -1.55712
rclavicle 2.8625e-014 -3.18055e-015
rhumerus -13.3468 -0.841769 -95.1592
rradius 69.3001
rwrist -64.804
rhand -50.3656 5.70984
rfingers 7.12502
rthumb -22.94 -22.9454
lclavicle 2.8625e-014 -3.18055e-015
lhumerus 65.9885 -70.8597 40.8848
lradius 23.8327
lwrist 4.57759
lhand 176.25 217.328
lfingers 7.12502
lthumb -158.006 246.098
rfemur -32.908 4.14885 21.1783
rtibia 31.6703
rfoot -10.3673 4.01401
rtoes 3.67167
lfemur -19.5343 10.6622 1.47955
ltibia 24.7145
lfoot -9.08035 10.2878
ltoes -23.6135
141
root -8.03631 17.7412 1.39665 -16.683 73.2412 -32.0235
lowerback 3.23854 -2.71812 -7.36482
upperback 5.97818 -3.5962 2.06982
thorax 5.04751 -2.15055 6.24673
lowerneck -12.1421 8.89838 2.05926
upperneck 30.7843 16.6118 -9.76475
head 13.5113 6.55713 -1.51284
rclavicle 6.36111e-015 3.97569e-014
rhumerus -13.2204 -1.08243 -94.8086
rradius 70.61
rwrist -63.7722
rhand -51.7744 6.24303
rfingers 7.12502
rthumb -24.2912 -22.238
lclavicle 6.36111e-015 3.97569e-014
lhumerus 66.3212 -70.159 41.2558
lradius 23.7704
lwrist 3.75197
lhand 175.363 215.575
lfingers 7.12502
lthumb -158.857 244.442
rfemur -33.1651 3.87252 21.586
rtibia 31.7609
rfoot -10.3336 4.50656
rtoes 3.99229
lfemur -19.442 10.3217 1.80771
ltibia 24.514
lfoot -9.11294 10.8683
ltoes -23.0984
142
root -8.03136 17.7363 1.44714 -16.0608 72.634 -31.3347
lowerback 3.2966 -2.96377 -7.69968
upperback 5.93868 -3.92974 1.96754
thorax 5.05036 -2.32991 6.32013
lowerneck -11.9315 9.36945 2.0666
upperneck 30.5077 17.2845 -9.90319
head 13.4214 6.84824 -1.46438
rclavicle -5.725e-014 -3.18055e-014
rhumerus -13.0919 -1.32845 -94.5456
rradius 71.6552
rwrist -62.3141
rhand -52.6914 7.21435
rfingers 7.12502
rthumb -25.1701 -21.1461
lclavicle -5.725e-014 -3.18055e-014
lhumerus 66.4891 -69.56 41.6693
lradius 23.7712
lwrist 2.75718
lhand 174.528 213.951
lfingers 7.12502
lthumb -159.66 242.906
rfemur -33.1503 4.15793 21.8883
rtibia 31.8794
rfoot -10.3487 4.86058
rtoes 3.47502
lfemur -18.8339 10.3133 2.11863
ltibia 24.2883
lfoot -9.17909 11.4776
ltoes -23.3
143
root -8.02234 17.7334 1.49416 -15.7365 72.2639 -30.9022
lowerback 3.30342 -3.24625 -7.97366
upperback 5.97792 -4.30312 1.85324
thorax 5.1699 -2.53178 6.33856
lowerneck -11.7699 9.78939 2.2021
upperneck 30.2051 17.8885 -10.1662
head 13.3561 7.1085 -1.49146
rclavicle -6.20208e-014 -1.74931e-014
rhumerus -12.8425 -1.72565 -94.2441
rradius 72.6007
rwrist -60.6381
rhand -52.6597 7.48519
rfingers 7.12502
rthumb -25.1397 -20.8795
lclavicle -6.20208e-014 -1.74931e-014
lhumerus 68.3441 -69.0613 40.3465
lradius 23.8502
lwrist 1.96677
lhand 173.707 212.734
lfingers 7.12502
lthumb -160.449 241.771
rfemur -33.0618 4.29407 22.1359
rtibia 32.0106
rfoot -10.399 5.13188
rtoes 3.48922
lfemur -18.2941 10.0934 2.38064
ltibia 24.0548
lfoot -9.17736 12.028
ltoes -23.1737
144
root -8.01492 17.7289 1.53104 -15.5792 71.9516 -30.851
lowerback 3.13786 -3.53471 -8.16864
upperback 5.9617 -4.6804 1.87356
thorax 5.33565 -2.7375 6.44418
lowerneck -11.5173 10.1499 2.23957
upperneck 29.8096 18.4162 -10.463
head 13.2231 7.33409 -1.53421
rclavicle -9.78021e-014 4.13472e-014
rhumerus -12.5692 -2.14726 -93.7181
rradius 73.9153
rwrist -59.5164
rhand -53.3498 9.88309
rfingers 7.12502
rthumb -25.8008 -18.3873
lclavicle -9.78021e-014 4.13472e-014
lhumerus 71.0201 -68.4983 38.4854
lradius 23.9162
lwrist 1.70178
lhand 172.701 211.464
lfingers 7.12502
lthumb -161.417 240.596
rfemur -33.2247 4.20286 22.4768
rtibia 32.1498
rfoot -10.361 5.58743
rtoes 5.16162
lfemur -18.0331 9.84316 2.67116
ltibia 23.8017
lfoot -9.14265 12.538
ltoes -22.3901
145
root -8.00646 17.7242 1.57114 -15.5892 71.5035 -30.8798
lowerback 3.10193 -3.74056 -8.38045
upperback 5.91532 -4.95918 1.91093
thorax 5.38365 -2.89008 6.58932
lowerneck -11.1727 10.4571 2.33249
upperneck 29.4384 18.8547 -10.7536
head 13.0811 7.53401 -1.60396
rclavicle -7.95139e-015 -2.54444e-014
rhumerus -12.351 -2.33699 -93.1663
rradius 75.4329
rwrist -59.563
rhand -54.2669 11.4931
rfingers 7.12502
rthumb -26.6787 -16.6466
lclavicle -7.95139e-015 -2.54444e-014
lhumerus 72.7907 -68.0251 37.6185
lradius 23.9781
lwrist 1.26514
lhand 171.834 209.742
lfingers 7.12502
lthumb -162.251 238.952
rfemur -33.2562 4.23625 22.9062
rtibia 32.2614
rfoot -10.3241 6.07233
rtoes 6.50624
lfemur -17.599 9.68111 3.07596
ltibia 23.5771
lfoot -9.25087 12.9794
ltoes -21.1346
146
root -7.99744 17.7188 1.63714 -14.9823 70.4715 -30.1574
lowerback 2.89295 -3.7468 -8.96501
upperback 6.01632 -4.9491 1.95562
thorax 5.67954 -2.93257 6.94747
lowerneck -11.0584 10.7744 2.23176
upperneck 29.0497 19.3307 -11.002
head 12.9608 7.72386 -1.60797
rclavicle -1.51076e-014 -2.8625e-014
rhumerus -11.8679 -2.39386 -92.6517
rradius 76.6161
rwrist -59.1932
rhand -55.2921 14.0553
rfingers 7.12502
rthumb -27.6595 -13.9312
lclavicle -1.51076e-014 -2.8625e-014
lhumerus 73.2729 -67.4331 38.0174
lradius 24.0649
lwrist 0.27925
lhand 171.258 207.989
lfingers 7.12502
lthumb -162.806 237.249
rfemur -33.128 5.08003 23.2901
rtibia 32.3516
rfoot -10.3768 6.34752
rtoes 6.21118
lfemur -16.7063 10.0865 3.54096
ltibia 23.3924
lfoot -9.4184 13.4379
ltoes -20.7729
147
root -7.98988 17.7163 1.67688 -14.896 70.028 -30.1009
lowerback 2.91963 -4.16804 -8.95136
upperback 6.04264 -5.5153 1.96394
thorax 5.80369 -3.22136 6.91743
lowerneck -11.2171 11.2977 1.68466
upperneck 28.7104 20.1462 -11.0416
head 12.8723 8.02188 -1.39482
rclavicle 9.70069e-014 -2.54444e-014
rhumerus -11.2309 -2.32688 -92.3302
rradius 77.5781
rwrist -57.5519
rhand -56.0465 16.6433
rfingers 7.12502
rthumb -28.3807 -11.2253
lclavicle 9.70069e-014 -2.54444e-014
lhumerus 72.2838 -66.4238 39.8099
lradius 23.9883
lwrist -1.04848
lhand 170.678 206.434
lfingers 7.12502
lthumb -163.363 235.741
rfemur -33.1541 5.30069 23.624
rtibia 32.4336
rfoot -10.3669 6.61644
rtoes 6.4046
lfemur -16.3141 9.79343 3.88772
ltibia 23.1929
lfoot -9.43478 14.1624
ltoes -20.7689
148
root -7.98285 17.7135 1.71556 -14.9277 69.6231 -30.2043
lowerback 3.14662 -4.81413 -8.98518
upperback 5.90395 -6.41462 2.0877
thorax 5.7223 -3.6704 7.03951
lowerneck -11.1415 12.0354 0.986735
upperneck 28.215 21.3156 -11.2284
head 12.702 8.46959 -1.17457
rclavicle 7.31528e-014 -1.43125e-014
rhumerus -10.7109 -1.72066 -92.0908
rradius 78.6567
rwrist -55.9432
rhand -56.7126 19.1085
rfingers 7.12502
rthumb -29.0171 -8.65231
lclavicle 7.31528e-014 -1.43125e-014
lhumerus 70.683 -65.057 42.1998
lradius 23.6554
lwrist -1.90345
lhand 169.765 204.697
lfingers 7.12502
lthumb -164.243 234.076
rfemur -33.2207 5.48408 23.9993
rtibia 32.538
rfoot -10.3311 6.87449
rtoes 7.51357
lfemur -15.935 9.30774 4.295
ltibia 22.9418
lfoot -9.62263 14.9253
ltoes -19.8472
